<svg xmlns="http://www.w3.org/2000/svg" version="1.1" viewBox="0.00 0.00 152.00 135.00" width="152.00" height="135.00">
<g stroke-width="2.00" fill="none" stroke-linecap="butt">
<path stroke="#a1bbd8" d="&#10;  M 76.96 57.77&#10;  Q 76.40 58.99 75.76 58.24&#10;  Q 68.15 49.35 60.34 41.31&#10;  Q 59.71 40.66 59.12 41.35&#10;  L 53.83 47.62&#10;  Q 53.27 48.28 53.85 48.93&#10;  Q 62.19 58.16 71.21 68.05&#10;  Q 72.02 68.94 73.67 68.62&#10;  Q 80.20 67.34 83.87 65.13"/>
<path stroke="#a9d4f0" d="&#10;  M 83.87 65.13&#10;  L 124.37 11.17&#10;  Q 124.45 11.05 124.36 10.95&#10;  Q 121.29 7.21 117.58 3.96&#10;  Q 117.50 3.90 117.44 3.98&#10;  L 76.96 57.77"/>
<path stroke="#4b90c9" d="&#10;  M 83.87 65.13&#10;  Q 80.42 62.71 79.88 61.64&#10;  Q 78.83 59.59 76.96 57.77"/>
<path stroke="#a0b1ce" d="&#10;  M 57.99 17.12&#10;  L 38.77 19.22&#10;  A 0.75 0.74 -4.9 0 0 38.11 20.00&#10;  L 41.01 69.79&#10;  Q 41.04 70.29 41.53 70.33&#10;  L 49.79 71.07&#10;  Q 50.18 71.11 50.17 70.71&#10;  L 48.39 28.99&#10;  A 0.53 0.53 0.0 0 1 48.88 28.43&#10;  L 62.36 27.27"/>
<path stroke="#a9d4f0" d="&#10;  M 62.36 27.27&#10;  L 97.04 24.16&#10;  A 3.85 3.84 15.8 0 0 99.79 22.63&#10;  L 107.38 12.58&#10;  A 0.56 0.56 0.0 0 0 106.87 11.68&#10;  L 57.99 17.12"/>
<path stroke="#4986bf" d="&#10;  M 62.36 27.27&#10;  L 57.99 17.12"/>
<path stroke="#9ba4c4" d="&#10;  M 76.50 71.39&#10;  Q 67.09 73.54 57.53 74.13&#10;  C 49.97 74.61 39.58 74.08 32.84 69.97&#10;  Q 31.49 69.16 32.06 67.69&#10;  C 32.86 65.63 35.17 63.46 36.80 62.04&#10;  A 2.47 2.47 0.0 0 0 37.65 59.99&#10;  L 36.96 51.01&#10;  Q 36.86 49.57 35.67 50.40&#10;  Q 28.95 55.05 25.62 59.58&#10;  C 18.56 69.17 25.05 77.86 34.66 81.40&#10;  C 49.14 86.73 67.92 85.06 82.75 80.98"/>
<path stroke="#a9d4f0" d="&#10;  M 82.75 80.98&#10;  C 98.03 77.19 116.98 68.49 125.38 54.39&#10;  C 129.69 47.16 129.85 37.33 121.79 32.49&#10;  Q 119.13 30.89 116.15 29.98&#10;  Q 113.46 29.15 112.75 31.96&#10;  Q 111.81 35.69 112.12 40.77&#10;  A 1.00 1.00 0.0 0 0 112.89 41.69&#10;  C 115.19 42.24 120.03 43.71 118.41 47.06&#10;  Q 117.01 49.97 114.79 52.14&#10;  C 104.58 62.10 89.68 68.18 76.50 71.39"/>
<path stroke="#4479b5" d="&#10;  M 82.75 80.98&#10;  Q 80.79 79.68 79.72 77.45&#10;  A 2.39 2.34 -83.5 0 0 79.12 76.68&#10;  Q 76.80 74.79 76.50 71.39"/>
<path stroke="#a9d4f0" d="&#10;  M 108.50 53.59&#10;  A 0.34 0.34 0.0 0 0 108.66 53.31&#10;  L 109.25 37.42&#10;  A 0.34 0.34 0.0 0 0 108.64 37.21&#10;  L 99.61 49.45&#10;  A 0.34 0.34 0.0 0 0 99.55 49.65&#10;  L 99.26 58.84&#10;  A 0.34 0.34 0.0 0 0 99.78 59.13&#10;  L 108.50 53.59"/>
<path stroke="#a1bbd8" d="&#10;  M 98.08 85.11&#10;  C 92.04 84.75 85.25 83.97 79.33 85.28&#10;  C 67.10 87.99 54.34 88.46 42.29 86.50&#10;  Q 41.98 86.45 41.99 86.76&#10;  L 42.27 92.79&#10;  Q 42.28 93.04 42.53 93.05&#10;  L 106.73 97.11&#10;  Q 107.10 97.13 107.11 96.77&#10;  L 107.79 76.09&#10;  Q 107.83 74.87 106.74 75.40&#10;  L 99.88 78.69&#10;  Q 98.73 79.24 98.69 80.52&#10;  L 98.57 84.67&#10;  A 0.46 0.46 0.0 0 1 98.08 85.11"/>
<path stroke="#a0b1ce" d="&#10;  M 45.96 118.05&#10;  Q 45.78 117.01 46.57 116.70&#10;  Q 48.80 115.79 50.68 116.99&#10;  Q 51.87 117.75 52.48 116.48&#10;  L 53.13 115.12&#10;  Q 53.69 113.95 52.49 113.46&#10;  C 48.70 111.92 43.25 111.96 42.07 116.79&#10;  C 41.00 121.19 45.41 123.06 48.61 124.50&#10;  A 1.50 1.50 0.0 0 1 48.68 127.20&#10;  Q 46.20 128.48 43.49 126.24&#10;  Q 42.30 125.26 41.59 126.63&#10;  L 40.76 128.22&#10;  Q 40.15 129.39 41.31 130.02&#10;  C 45.50 132.30 53.29 132.74 54.04 126.40&#10;  C 54.54 122.16 49.63 120.53 46.59 118.91&#10;  A 1.23 1.20 -82.1 0 1 45.96 118.05"/>
<path stroke="#a0b1ce" d="&#10;  M 110.3028 131.6593&#10;  A 9.59 9.32 90.7 0 0 119.7393 122.1839&#10;  A 9.59 9.32 90.7 0 0 110.5372 112.4807&#10;  A 9.59 9.32 90.7 0 0 101.1007 121.9561&#10;  A 9.59 9.32 90.7 0 0 110.3028 131.6593"/>
<path stroke="#a0b1ce" d="&#10;  M 133.17 122.37&#10;  L 135.42 130.53&#10;  A 0.82 0.81 -1.1 0 0 136.02 131.10&#10;  Q 137.75 131.51 139.71 131.24&#10;  A 1.02 1.01 3.9 0 0 140.55 130.51&#10;  L 145.39 113.73&#10;  Q 145.64 112.87 144.75 112.84&#10;  L 141.63 112.73&#10;  A 0.81 0.80 -81.9 0 0 140.83 113.34&#10;  L 137.98 124.51&#10;  Q 137.69 125.66 137.37 124.52&#10;  Q 136.06 119.83 134.70 114.23&#10;  Q 134.24 112.33 132.16 112.66&#10;  Q 131.10 112.82 130.82 113.86&#10;  L 128.16 124.00&#10;  Q 127.71 125.72 127.27 124.00&#10;  L 124.58 113.39&#10;  A 0.91 0.90 -8.2 0 0 123.66 112.71&#10;  L 120.47 112.84&#10;  Q 119.76 112.86 119.95 113.55&#10;  L 124.82 130.50&#10;  A 0.96 0.96 0.0 0 0 125.57 131.19&#10;  Q 127.28 131.49 129.14 131.18&#10;  Q 129.79 131.07 129.97 130.43&#10;  L 132.21 122.37&#10;  Q 132.69 120.63 133.17 122.37"/>
<path stroke="#a0b1ce" d="&#10;  M 15.00 116.28&#10;  L 17.50 116.30&#10;  Q 18.57 116.31 18.56 115.24&#10;  L 18.54 113.96&#10;  Q 18.52 112.93 17.49 112.91&#10;  Q 11.86 112.78 6.21 112.99&#10;  Q 5.35 113.03 5.36 113.89&#10;  Q 5.36 113.92 5.37 115.48&#10;  Q 5.37 116.39 6.28 116.37&#10;  L 8.98 116.32&#10;  A 0.90 0.90 0.0 0 1 9.90 117.22&#10;  L 9.97 130.36&#10;  Q 9.97 131.34 10.95 131.33&#10;  L 13.17 131.32&#10;  Q 14.13 131.31 14.12 130.35&#10;  L 14.02 117.25&#10;  Q 14.01 116.27 15.00 116.28"/>
<path stroke="#a0b1ce" d="&#10;  M 26.07 127.56&#10;  L 31.73 127.56&#10;  A 1.19 1.19 0.0 0 1 32.86 128.34&#10;  L 33.64 130.50&#10;  Q 33.90 131.23 34.67 131.23&#10;  L 37.29 131.25&#10;  A 0.76 0.75 -10.8 0 0 38.00 130.21&#10;  L 31.24 113.60&#10;  Q 31.05 113.11 30.54 112.95&#10;  Q 29.08 112.48 27.59 112.90&#10;  A 1.32 1.32 0.0 0 0 26.73 113.68&#10;  L 20.00 130.20&#10;  A 0.76 0.76 0.0 0 0 20.71 131.25&#10;  L 23.37 131.23&#10;  A 1.05 1.05 0.0 0 0 24.34 130.54&#10;  L 25.20 128.17&#10;  Q 25.42 127.56 26.07 127.56"/>
<path stroke="#a0b1ce" d="&#10;  M 60.53 124.60&#10;  A 0.49 0.49 0.0 0 1 61.39 124.29&#10;  L 67.06 131.04&#10;  A 0.49 0.49 0.0 0 0 67.44 131.21&#10;  L 72.30 131.23&#10;  A 0.49 0.49 0.0 0 0 72.66 130.41&#10;  L 64.80 121.86&#10;  A 0.49 0.49 0.0 0 1 64.79 121.21&#10;  L 71.48 113.51&#10;  A 0.49 0.49 0.0 0 0 71.09 112.70&#10;  L 66.93 112.84&#10;  A 0.49 0.49 0.0 0 0 66.57 113.03&#10;  L 61.42 119.45&#10;  A 0.49 0.49 0.0 0 1 60.55 119.14&#10;  L 60.50 113.31&#10;  A 0.49 0.49 0.0 0 0 60.02 112.82&#10;  L 56.89 112.78&#10;  A 0.49 0.49 0.0 0 0 56.39 113.27&#10;  L 56.35 130.74&#10;  A 0.49 0.49 0.0 0 0 56.81 131.23&#10;  L 60.00 131.41&#10;  A 0.49 0.49 0.0 0 0 60.52 130.92&#10;  L 60.53 124.60"/>
<path stroke="#a0b1ce" d="&#10;  M 80.41 120.19&#10;  A 0.82 0.82 0.0 0 1 79.58 119.40&#10;  L 79.49 117.24&#10;  A 0.82 0.82 0.0 0 1 80.32 116.39&#10;  L 85.38 116.41&#10;  A 0.82 0.82 0.0 0 0 86.20 115.60&#10;  L 86.22 113.67&#10;  A 0.82 0.82 0.0 0 0 85.41 112.84&#10;  L 76.25 112.73&#10;  A 0.82 0.82 0.0 0 0 75.42 113.55&#10;  L 75.34 130.47&#10;  A 0.82 0.82 0.0 0 0 76.16 131.30&#10;  L 78.80 131.31&#10;  A 0.82 0.82 0.0 0 0 79.63 130.48&#10;  L 79.56 124.72&#10;  A 0.82 0.82 0.0 0 1 80.36 123.89&#10;  L 84.95 123.78&#10;  A 0.82 0.82 0.0 0 0 85.75 122.98&#10;  L 85.81 120.96&#10;  A 0.82 0.82 0.0 0 0 84.97 120.11&#10;  L 80.41 120.19"/>
<path stroke="#a0b1ce" d="&#10;  M 93.23 127.65&#10;  A 0.75 0.75 0.0 0 1 92.47 126.90&#10;  L 92.45 113.46&#10;  A 0.75 0.75 0.0 0 0 91.67 112.71&#10;  L 89.11 112.82&#10;  A 0.75 0.75 0.0 0 0 88.39 113.57&#10;  L 88.32 130.54&#10;  A 0.75 0.75 0.0 0 0 89.08 131.29&#10;  L 98.31 131.19&#10;  A 0.75 0.75 0.0 0 0 99.05 130.39&#10;  L 98.91 128.30&#10;  A 0.75 0.75 0.0 0 0 98.15 127.61&#10;  L 93.23 127.65"/>
<path stroke="#a0b1ce" d="&#10;  M 110.5080 127.5895&#10;  A 5.59 4.84 89.2 0 0 115.2695 121.9324&#10;  A 5.59 4.84 89.2 0 0 110.3520 116.4105&#10;  A 5.59 4.84 89.2 0 0 105.5905 122.0676&#10;  A 5.59 4.84 89.2 0 0 110.5080 127.5895"/>
<path stroke="#a0b1ce" d="&#10;  M 27.17 123.21&#10;  A 0.50 0.50 0.0 0 0 27.62 123.90&#10;  L 30.54 123.94&#10;  A 0.50 0.50 0.0 0 0 31.02 123.27&#10;  L 29.61 119.46&#10;  A 0.50 0.50 0.0 0 0 28.68 119.45&#10;  L 27.17 123.21"/>
</g>
<path fill="#ffffff" d="&#10;  M 0.00 0.00&#10;  L 152.00 0.00&#10;  L 152.00 135.00&#10;  L 0.00 135.00&#10;  L 0.00 0.00&#10;  Z&#10;  M 76.96 57.77&#10;  Q 76.40 58.99 75.76 58.24&#10;  Q 68.15 49.35 60.34 41.31&#10;  Q 59.71 40.66 59.12 41.35&#10;  L 53.83 47.62&#10;  Q 53.27 48.28 53.85 48.93&#10;  Q 62.19 58.16 71.21 68.05&#10;  Q 72.02 68.94 73.67 68.62&#10;  Q 80.20 67.34 83.87 65.13&#10;  L 124.37 11.17&#10;  Q 124.45 11.05 124.36 10.95&#10;  Q 121.29 7.21 117.58 3.96&#10;  Q 117.50 3.90 117.44 3.98&#10;  L 76.96 57.77&#10;  Z&#10;  M 57.99 17.12&#10;  L 38.77 19.22&#10;  A 0.75 0.74 -4.9 0 0 38.11 20.00&#10;  L 41.01 69.79&#10;  Q 41.04 70.29 41.53 70.33&#10;  L 49.79 71.07&#10;  Q 50.18 71.11 50.17 70.71&#10;  L 48.39 28.99&#10;  A 0.53 0.53 0.0 0 1 48.88 28.43&#10;  L 62.36 27.27&#10;  L 97.04 24.16&#10;  A 3.85 3.84 15.8 0 0 99.79 22.63&#10;  L 107.38 12.58&#10;  A 0.56 0.56 0.0 0 0 106.87 11.68&#10;  L 57.99 17.12&#10;  Z&#10;  M 76.50 71.39&#10;  Q 67.09 73.54 57.53 74.13&#10;  C 49.97 74.61 39.58 74.08 32.84 69.97&#10;  Q 31.49 69.16 32.06 67.69&#10;  C 32.86 65.63 35.17 63.46 36.80 62.04&#10;  A 2.47 2.47 0.0 0 0 37.65 59.99&#10;  L 36.96 51.01&#10;  Q 36.86 49.57 35.67 50.40&#10;  Q 28.95 55.05 25.62 59.58&#10;  C 18.56 69.17 25.05 77.86 34.66 81.40&#10;  C 49.14 86.73 67.92 85.06 82.75 80.98&#10;  C 98.03 77.19 116.98 68.49 125.38 54.39&#10;  C 129.69 47.16 129.85 37.33 121.79 32.49&#10;  Q 119.13 30.89 116.15 29.98&#10;  Q 113.46 29.15 112.75 31.96&#10;  Q 111.81 35.69 112.12 40.77&#10;  A 1.00 1.00 0.0 0 0 112.89 41.69&#10;  C 115.19 42.24 120.03 43.71 118.41 47.06&#10;  Q 117.01 49.97 114.79 52.14&#10;  C 104.58 62.10 89.68 68.18 76.50 71.39&#10;  Z&#10;  M 108.50 53.59&#10;  A 0.34 0.34 0.0 0 0 108.66 53.31&#10;  L 109.25 37.42&#10;  A 0.34 0.34 0.0 0 0 108.64 37.21&#10;  L 99.61 49.45&#10;  A 0.34 0.34 0.0 0 0 99.55 49.65&#10;  L 99.26 58.84&#10;  A 0.34 0.34 0.0 0 0 99.78 59.13&#10;  L 108.50 53.59&#10;  Z&#10;  M 98.08 85.11&#10;  C 92.04 84.75 85.25 83.97 79.33 85.28&#10;  C 67.10 87.99 54.34 88.46 42.29 86.50&#10;  Q 41.98 86.45 41.99 86.76&#10;  L 42.27 92.79&#10;  Q 42.28 93.04 42.53 93.05&#10;  L 106.73 97.11&#10;  Q 107.10 97.13 107.11 96.77&#10;  L 107.79 76.09&#10;  Q 107.83 74.87 106.74 75.40&#10;  L 99.88 78.69&#10;  Q 98.73 79.24 98.69 80.52&#10;  L 98.57 84.67&#10;  A 0.46 0.46 0.0 0 1 98.08 85.11&#10;  Z&#10;  M 45.96 118.05&#10;  Q 45.78 117.01 46.57 116.70&#10;  Q 48.80 115.79 50.68 116.99&#10;  Q 51.87 117.75 52.48 116.48&#10;  L 53.13 115.12&#10;  Q 53.69 113.95 52.49 113.46&#10;  C 48.70 111.92 43.25 111.96 42.07 116.79&#10;  C 41.00 121.19 45.41 123.06 48.61 124.50&#10;  A 1.50 1.50 0.0 0 1 48.68 127.20&#10;  Q 46.20 128.48 43.49 126.24&#10;  Q 42.30 125.26 41.59 126.63&#10;  L 40.76 128.22&#10;  Q 40.15 129.39 41.31 130.02&#10;  C 45.50 132.30 53.29 132.74 54.04 126.40&#10;  C 54.54 122.16 49.63 120.53 46.59 118.91&#10;  A 1.23 1.20 -82.1 0 1 45.96 118.05&#10;  Z&#10;  M 110.3028 131.6593&#10;  A 9.59 9.32 90.7 0 0 119.7393 122.1839&#10;  A 9.59 9.32 90.7 0 0 110.5372 112.4807&#10;  A 9.59 9.32 90.7 0 0 101.1007 121.9561&#10;  A 9.59 9.32 90.7 0 0 110.3028 131.6593&#10;  Z&#10;  M 133.17 122.37&#10;  L 135.42 130.53&#10;  A 0.82 0.81 -1.1 0 0 136.02 131.10&#10;  Q 137.75 131.51 139.71 131.24&#10;  A 1.02 1.01 3.9 0 0 140.55 130.51&#10;  L 145.39 113.73&#10;  Q 145.64 112.87 144.75 112.84&#10;  L 141.63 112.73&#10;  A 0.81 0.80 -81.9 0 0 140.83 113.34&#10;  L 137.98 124.51&#10;  Q 137.69 125.66 137.37 124.52&#10;  Q 136.06 119.83 134.70 114.23&#10;  Q 134.24 112.33 132.16 112.66&#10;  Q 131.10 112.82 130.82 113.86&#10;  L 128.16 124.00&#10;  Q 127.71 125.72 127.27 124.00&#10;  L 124.58 113.39&#10;  A 0.91 0.90 -8.2 0 0 123.66 112.71&#10;  L 120.47 112.84&#10;  Q 119.76 112.86 119.95 113.55&#10;  L 124.82 130.50&#10;  A 0.96 0.96 0.0 0 0 125.57 131.19&#10;  Q 127.28 131.49 129.14 131.18&#10;  Q 129.79 131.07 129.97 130.43&#10;  L 132.21 122.37&#10;  Q 132.69 120.63 133.17 122.37&#10;  Z&#10;  M 15.00 116.28&#10;  L 17.50 116.30&#10;  Q 18.57 116.31 18.56 115.24&#10;  L 18.54 113.96&#10;  Q 18.52 112.93 17.49 112.91&#10;  Q 11.86 112.78 6.21 112.99&#10;  Q 5.35 113.03 5.36 113.89&#10;  Q 5.36 113.92 5.37 115.48&#10;  Q 5.37 116.39 6.28 116.37&#10;  L 8.98 116.32&#10;  A 0.90 0.90 0.0 0 1 9.90 117.22&#10;  L 9.97 130.36&#10;  Q 9.97 131.34 10.95 131.33&#10;  L 13.17 131.32&#10;  Q 14.13 131.31 14.12 130.35&#10;  L 14.02 117.25&#10;  Q 14.01 116.27 15.00 116.28&#10;  Z&#10;  M 26.07 127.56&#10;  L 31.73 127.56&#10;  A 1.19 1.19 0.0 0 1 32.86 128.34&#10;  L 33.64 130.50&#10;  Q 33.90 131.23 34.67 131.23&#10;  L 37.29 131.25&#10;  A 0.76 0.75 -10.8 0 0 38.00 130.21&#10;  L 31.24 113.60&#10;  Q 31.05 113.11 30.54 112.95&#10;  Q 29.08 112.48 27.59 112.90&#10;  A 1.32 1.32 0.0 0 0 26.73 113.68&#10;  L 20.00 130.20&#10;  A 0.76 0.76 0.0 0 0 20.71 131.25&#10;  L 23.37 131.23&#10;  A 1.05 1.05 0.0 0 0 24.34 130.54&#10;  L 25.20 128.17&#10;  Q 25.42 127.56 26.07 127.56&#10;  Z&#10;  M 60.53 124.60&#10;  A 0.49 0.49 0.0 0 1 61.39 124.29&#10;  L 67.06 131.04&#10;  A 0.49 0.49 0.0 0 0 67.44 131.21&#10;  L 72.30 131.23&#10;  A 0.49 0.49 0.0 0 0 72.66 130.41&#10;  L 64.80 121.86&#10;  A 0.49 0.49 0.0 0 1 64.79 121.21&#10;  L 71.48 113.51&#10;  A 0.49 0.49 0.0 0 0 71.09 112.70&#10;  L 66.93 112.84&#10;  A 0.49 0.49 0.0 0 0 66.57 113.03&#10;  L 61.42 119.45&#10;  A 0.49 0.49 0.0 0 1 60.55 119.14&#10;  L 60.50 113.31&#10;  A 0.49 0.49 0.0 0 0 60.02 112.82&#10;  L 56.89 112.78&#10;  A 0.49 0.49 0.0 0 0 56.39 113.27&#10;  L 56.35 130.74&#10;  A 0.49 0.49 0.0 0 0 56.81 131.23&#10;  L 60.00 131.41&#10;  A 0.49 0.49 0.0 0 0 60.52 130.92&#10;  L 60.53 124.60&#10;  Z&#10;  M 80.41 120.19&#10;  A 0.82 0.82 0.0 0 1 79.58 119.40&#10;  L 79.49 117.24&#10;  A 0.82 0.82 0.0 0 1 80.32 116.39&#10;  L 85.38 116.41&#10;  A 0.82 0.82 0.0 0 0 86.20 115.60&#10;  L 86.22 113.67&#10;  A 0.82 0.82 0.0 0 0 85.41 112.84&#10;  L 76.25 112.73&#10;  A 0.82 0.82 0.0 0 0 75.42 113.55&#10;  L 75.34 130.47&#10;  A 0.82 0.82 0.0 0 0 76.16 131.30&#10;  L 78.80 131.31&#10;  A 0.82 0.82 0.0 0 0 79.63 130.48&#10;  L 79.56 124.72&#10;  A 0.82 0.82 0.0 0 1 80.36 123.89&#10;  L 84.95 123.78&#10;  A 0.82 0.82 0.0 0 0 85.75 122.98&#10;  L 85.81 120.96&#10;  A 0.82 0.82 0.0 0 0 84.97 120.11&#10;  L 80.41 120.19&#10;  Z&#10;  M 93.23 127.65&#10;  A 0.75 0.75 0.0 0 1 92.47 126.90&#10;  L 92.45 113.46&#10;  A 0.75 0.75 0.0 0 0 91.67 112.71&#10;  L 89.11 112.82&#10;  A 0.75 0.75 0.0 0 0 88.39 113.57&#10;  L 88.32 130.54&#10;  A 0.75 0.75 0.0 0 0 89.08 131.29&#10;  L 98.31 131.19&#10;  A 0.75 0.75 0.0 0 0 99.05 130.39&#10;  L 98.91 128.30&#10;  A 0.75 0.75 0.0 0 0 98.15 127.61&#10;  L 93.23 127.65&#10;  Z"/>
<path fill="#52a9e1" d="&#10;  M 83.87 65.13&#10;  Q 80.42 62.71 79.88 61.64&#10;  Q 78.83 59.59 76.96 57.77&#10;  L 117.44 3.98&#10;  Q 117.50 3.90 117.58 3.96&#10;  Q 121.29 7.21 124.36 10.95&#10;  Q 124.45 11.05 124.37 11.17&#10;  L 83.87 65.13&#10;  Z"/>
<path fill="#52a9e1" d="&#10;  M 62.36 27.27&#10;  L 57.99 17.12&#10;  L 106.87 11.68&#10;  A 0.56 0.56 0.0 0 1 107.38 12.58&#10;  L 99.79 22.63&#10;  A 3.85 3.84 15.8 0 1 97.04 24.16&#10;  L 62.36 27.27&#10;  Z"/>
<path fill="#40639c" d="&#10;  M 57.99 17.12&#10;  L 62.36 27.27&#10;  L 48.88 28.43&#10;  A 0.53 0.53 0.0 0 0 48.39 28.99&#10;  L 50.17 70.71&#10;  Q 50.18 71.11 49.79 71.07&#10;  L 41.53 70.33&#10;  Q 41.04 70.29 41.01 69.79&#10;  L 38.11 20.00&#10;  A 0.75 0.74 -4.9 0 1 38.77 19.22&#10;  L 57.99 17.12&#10;  Z"/>
<path fill="#52a9e1" d="&#10;  M 82.75 80.98&#10;  Q 80.79 79.68 79.72 77.45&#10;  A 2.39 2.34 -83.5 0 0 79.12 76.68&#10;  Q 76.80 74.79 76.50 71.39&#10;  C 89.68 68.18 104.58 62.10 114.79 52.14&#10;  Q 117.01 49.97 118.41 47.06&#10;  C 120.03 43.71 115.19 42.24 112.89 41.69&#10;  A 1.00 1.00 0.0 0 1 112.12 40.77&#10;  Q 111.81 35.69 112.75 31.96&#10;  Q 113.46 29.15 116.15 29.98&#10;  Q 119.13 30.89 121.79 32.49&#10;  C 129.85 37.33 129.69 47.16 125.38 54.39&#10;  C 116.98 68.49 98.03 77.19 82.75 80.98&#10;  Z"/>
<path fill="#52a9e1" d="&#10;  M 108.50 53.59&#10;  L 99.78 59.13&#10;  A 0.34 0.34 0.0 0 1 99.26 58.84&#10;  L 99.55 49.65&#10;  A 0.34 0.34 0.0 0 1 99.61 49.45&#10;  L 108.64 37.21&#10;  A 0.34 0.34 0.0 0 1 109.25 37.42&#10;  L 108.66 53.31&#10;  A 0.34 0.34 0.0 0 1 108.50 53.59&#10;  Z"/>
<path fill="#4376b1" d="&#10;  M 76.96 57.77&#10;  Q 78.83 59.59 79.88 61.64&#10;  Q 80.42 62.71 83.87 65.13&#10;  Q 80.20 67.34 73.67 68.62&#10;  Q 72.02 68.94 71.21 68.05&#10;  Q 62.19 58.16 53.85 48.93&#10;  Q 53.27 48.28 53.83 47.62&#10;  L 59.12 41.35&#10;  Q 59.71 40.66 60.34 41.31&#10;  Q 68.15 49.35 75.76 58.24&#10;  Q 76.40 58.99 76.96 57.77&#10;  Z"/>
<path fill="#364888" d="&#10;  M 76.50 71.39&#10;  Q 76.80 74.79 79.12 76.68&#10;  A 2.39 2.34 -83.5 0 1 79.72 77.45&#10;  Q 80.79 79.68 82.75 80.98&#10;  C 67.92 85.06 49.14 86.73 34.66 81.40&#10;  C 25.05 77.86 18.56 69.17 25.62 59.58&#10;  Q 28.95 55.05 35.67 50.40&#10;  Q 36.86 49.57 36.96 51.01&#10;  L 37.65 59.99&#10;  A 2.47 2.47 0.0 0 1 36.80 62.04&#10;  C 35.17 63.46 32.86 65.63 32.06 67.69&#10;  Q 31.49 69.16 32.84 69.97&#10;  C 39.58 74.08 49.97 74.61 57.53 74.13&#10;  Q 67.09 73.54 76.50 71.39&#10;  Z"/>
<path fill="#4376b1" d="&#10;  M 98.08 85.11&#10;  A 0.46 0.46 0.0 0 0 98.57 84.67&#10;  L 98.69 80.52&#10;  Q 98.73 79.24 99.88 78.69&#10;  L 106.74 75.40&#10;  Q 107.83 74.87 107.79 76.09&#10;  L 107.11 96.77&#10;  Q 107.10 97.13 106.73 97.11&#10;  L 42.53 93.05&#10;  Q 42.28 93.04 42.27 92.79&#10;  L 41.99 86.76&#10;  Q 41.98 86.45 42.29 86.50&#10;  C 54.34 88.46 67.10 87.99 79.33 85.28&#10;  C 85.25 83.97 92.04 84.75 98.08 85.11&#10;  Z"/>
<path fill="#40639c" d="&#10;  M 45.96 118.05&#10;  A 1.23 1.20 -82.1 0 0 46.59 118.91&#10;  C 49.63 120.53 54.54 122.16 54.04 126.40&#10;  C 53.29 132.74 45.50 132.30 41.31 130.02&#10;  Q 40.15 129.39 40.76 128.22&#10;  L 41.59 126.63&#10;  Q 42.30 125.26 43.49 126.24&#10;  Q 46.20 128.48 48.68 127.20&#10;  A 1.50 1.50 0.0 0 0 48.61 124.50&#10;  C 45.41 123.06 41.00 121.19 42.07 116.79&#10;  C 43.25 111.96 48.70 111.92 52.49 113.46&#10;  Q 53.69 113.95 53.13 115.12&#10;  L 52.48 116.48&#10;  Q 51.87 117.75 50.68 116.99&#10;  Q 48.80 115.79 46.57 116.70&#10;  Q 45.78 117.01 45.96 118.05&#10;  Z"/>
<path fill="#40639c" d="&#10;  M 110.3028 131.6593&#10;  A 9.59 9.32 90.7 0 1 101.1007 121.9561&#10;  A 9.59 9.32 90.7 0 1 110.5372 112.4807&#10;  A 9.59 9.32 90.7 0 1 119.7393 122.1839&#10;  A 9.59 9.32 90.7 0 1 110.3028 131.6593&#10;  Z&#10;  M 110.5080 127.5895&#10;  A 5.59 4.84 89.2 0 0 115.2695 121.9324&#10;  A 5.59 4.84 89.2 0 0 110.3520 116.4105&#10;  A 5.59 4.84 89.2 0 0 105.5905 122.0676&#10;  A 5.59 4.84 89.2 0 0 110.5080 127.5895&#10;  Z"/>
<path fill="#40639c" d="&#10;  M 133.17 122.37&#10;  Q 132.69 120.63 132.21 122.37&#10;  L 129.97 130.43&#10;  Q 129.79 131.07 129.14 131.18&#10;  Q 127.28 131.49 125.57 131.19&#10;  A 0.96 0.96 0.0 0 1 124.82 130.50&#10;  L 119.95 113.55&#10;  Q 119.76 112.86 120.47 112.84&#10;  L 123.66 112.71&#10;  A 0.91 0.90 -8.2 0 1 124.58 113.39&#10;  L 127.27 124.00&#10;  Q 127.71 125.72 128.16 124.00&#10;  L 130.82 113.86&#10;  Q 131.10 112.82 132.16 112.66&#10;  Q 134.24 112.33 134.70 114.23&#10;  Q 136.06 119.83 137.37 124.52&#10;  Q 137.69 125.66 137.98 124.51&#10;  L 140.83 113.34&#10;  A 0.81 0.80 -81.9 0 1 141.63 112.73&#10;  L 144.75 112.84&#10;  Q 145.64 112.87 145.39 113.73&#10;  L 140.55 130.51&#10;  A 1.02 1.01 3.9 0 1 139.71 131.24&#10;  Q 137.75 131.51 136.02 131.10&#10;  A 0.82 0.81 -1.1 0 1 135.42 130.53&#10;  L 133.17 122.37&#10;  Z"/>
<path fill="#40639c" d="&#10;  M 14.02 117.25&#10;  L 14.12 130.35&#10;  Q 14.13 131.31 13.17 131.32&#10;  L 10.95 131.33&#10;  Q 9.97 131.34 9.97 130.36&#10;  L 9.90 117.22&#10;  A 0.90 0.90 0.0 0 0 8.98 116.32&#10;  L 6.28 116.37&#10;  Q 5.37 116.39 5.37 115.48&#10;  Q 5.36 113.92 5.36 113.89&#10;  Q 5.35 113.03 6.21 112.99&#10;  Q 11.86 112.78 17.49 112.91&#10;  Q 18.52 112.93 18.54 113.96&#10;  L 18.56 115.24&#10;  Q 18.57 116.31 17.50 116.30&#10;  L 15.00 116.28&#10;  Q 14.01 116.27 14.02 117.25&#10;  Z"/>
<path fill="#40639c" d="&#10;  M 25.20 128.17&#10;  L 24.34 130.54&#10;  A 1.05 1.05 0.0 0 1 23.37 131.23&#10;  L 20.71 131.25&#10;  A 0.76 0.76 0.0 0 1 20.00 130.20&#10;  L 26.73 113.68&#10;  A 1.32 1.32 0.0 0 1 27.59 112.90&#10;  Q 29.08 112.48 30.54 112.95&#10;  Q 31.05 113.11 31.24 113.60&#10;  L 38.00 130.21&#10;  A 0.76 0.75 -10.8 0 1 37.29 131.25&#10;  L 34.67 131.23&#10;  Q 33.90 131.23 33.64 130.50&#10;  L 32.86 128.34&#10;  A 1.19 1.19 0.0 0 0 31.73 127.56&#10;  L 26.07 127.56&#10;  Q 25.42 127.56 25.20 128.17&#10;  Z&#10;  M 27.17 123.21&#10;  A 0.50 0.50 0.0 0 0 27.62 123.90&#10;  L 30.54 123.94&#10;  A 0.50 0.50 0.0 0 0 31.02 123.27&#10;  L 29.61 119.46&#10;  A 0.50 0.50 0.0 0 0 28.68 119.45&#10;  L 27.17 123.21&#10;  Z"/>
<path fill="#40639c" d="&#10;  M 60.53 124.60&#10;  L 60.52 130.92&#10;  A 0.49 0.49 0.0 0 1 60.00 131.41&#10;  L 56.81 131.23&#10;  A 0.49 0.49 0.0 0 1 56.35 130.74&#10;  L 56.39 113.27&#10;  A 0.49 0.49 0.0 0 1 56.89 112.78&#10;  L 60.02 112.82&#10;  A 0.49 0.49 0.0 0 1 60.50 113.31&#10;  L 60.55 119.14&#10;  A 0.49 0.49 0.0 0 0 61.42 119.45&#10;  L 66.57 113.03&#10;  A 0.49 0.49 0.0 0 1 66.93 112.84&#10;  L 71.09 112.70&#10;  A 0.49 0.49 0.0 0 1 71.48 113.51&#10;  L 64.79 121.21&#10;  A 0.49 0.49 0.0 0 0 64.80 121.86&#10;  L 72.66 130.41&#10;  A 0.49 0.49 0.0 0 1 72.30 131.23&#10;  L 67.44 131.21&#10;  A 0.49 0.49 0.0 0 1 67.06 131.04&#10;  L 61.39 124.29&#10;  A 0.49 0.49 0.0 0 0 60.53 124.60&#10;  Z"/>
<path fill="#40639c" d="&#10;  M 80.41 120.19&#10;  L 84.97 120.11&#10;  A 0.82 0.82 0.0 0 1 85.81 120.96&#10;  L 85.75 122.98&#10;  A 0.82 0.82 0.0 0 1 84.95 123.78&#10;  L 80.36 123.89&#10;  A 0.82 0.82 0.0 0 0 79.56 124.72&#10;  L 79.63 130.48&#10;  A 0.82 0.82 0.0 0 1 78.80 131.31&#10;  L 76.16 131.30&#10;  A 0.82 0.82 0.0 0 1 75.34 130.47&#10;  L 75.42 113.55&#10;  A 0.82 0.82 0.0 0 1 76.25 112.73&#10;  L 85.41 112.84&#10;  A 0.82 0.82 0.0 0 1 86.22 113.67&#10;  L 86.20 115.60&#10;  A 0.82 0.82 0.0 0 1 85.38 116.41&#10;  L 80.32 116.39&#10;  A 0.82 0.82 0.0 0 0 79.49 117.24&#10;  L 79.58 119.40&#10;  A 0.82 0.82 0.0 0 0 80.41 120.19&#10;  Z"/>
<path fill="#40639c" d="&#10;  M 93.23 127.65&#10;  L 98.15 127.61&#10;  A 0.75 0.75 0.0 0 1 98.91 128.30&#10;  L 99.05 130.39&#10;  A 0.75 0.75 0.0 0 1 98.31 131.19&#10;  L 89.08 131.29&#10;  A 0.75 0.75 0.0 0 1 88.32 130.54&#10;  L 88.39 113.57&#10;  A 0.75 0.75 0.0 0 1 89.11 112.82&#10;  L 91.67 112.71&#10;  A 0.75 0.75 0.0 0 1 92.45 113.46&#10;  L 92.47 126.90&#10;  A 0.75 0.75 0.0 0 0 93.23 127.65&#10;  Z"/>
<ellipse fill="#ffffff" cx="0.00" cy="0.00" transform="translate(110.43,122.00) rotate(89.2)" rx="5.59" ry="4.84"/>
<path fill="#ffffff" d="&#10;  M 27.17 123.21&#10;  L 28.68 119.45&#10;  A 0.50 0.50 0.0 0 1 29.61 119.46&#10;  L 31.02 123.27&#10;  A 0.50 0.50 0.0 0 1 30.54 123.94&#10;  L 27.62 123.90&#10;  A 0.50 0.50 0.0 0 1 27.17 123.21&#10;  Z"/>
</svg>